<svg xmlns="http://www.w3.org/2000/svg" version="1.1" xmlns:xlink="http://www.w3.org/1999/xlink" xmlns:svgjs="http://svgjs.com/svgjs" width="1440" height="560" preserveAspectRatio="none" viewBox="0 0 1440 560"><g mask="url(&quot;#SvgjsMask1010&quot;)" fill="none"><path d="M277.26 84.58L305.99 84.58L305.99 113.31L277.26 113.31z" fill="rgba(24, 119, 242, 0.31)"></path><path d="M22.31 95.03a32.62 32.62 0 1 0 64.78-7.8z" stroke="rgba(24, 119, 242, 0.31)"></path><path d="M1103.05 311.95L1148.03 311.95L1148.03 356L1103.05 356z" stroke="rgba(24, 119, 242, 0.31)"></path><path d="M497.11 132.46L551.42 132.46L551.42 179.93L497.11 179.93z" stroke="rgba(24, 119, 242, 0.31)"></path><path d="M151.61 468.06L189.52 468.06L189.52 470.15L151.61 470.15z" fill="rgba(24, 119, 242, 0.31)"></path><path d="M1201.56 365.38L1235.65 365.38L1235.65 399.47L1201.56 399.47z" stroke="rgba(24, 119, 242, 0.31)"></path><path d="M923.63 352.09L942.32 352.09L942.32 367.24L923.63 367.24z" stroke="rgba(24, 119, 242, 0.31)"></path><path d="M1016.73 307.1a11.48 11.48 0 1 0 17.33-15.06z" stroke="rgba(24, 119, 242, 0.31)"></path><path d="M1355.89 248.38a13.92 13.92 0 1 0-13.49 24.36z" fill="rgba(24, 119, 242, 0.31)"></path><path d="M874.76 538.91L892.19 538.91L892.19 556.34L874.76 556.34z" fill="rgba(24, 119, 242, 0.31)"></path><path d="M215.67 339.62L232.5 339.62L232.5 380.44L215.67 380.44z" stroke="rgba(24, 119, 242, 0.31)"></path><path d="M1130.29 527.22L1131.39 527.22L1131.39 527.74L1130.29 527.74z" fill="rgba(24, 119, 242, 0.31)"></path><path d="M867.26 131.48a31.38 31.38 0 1 0 30.24 55z" fill="rgba(24, 119, 242, 0.31)"></path><path d="M1154.79 187.95a1.62 1.62 0 1 0-3.23-0.25z" fill="rgba(24, 119, 242, 0.31)"></path><path d="M160.13 40.62a42.33 42.33 0 1 0-72.5-43.7z" stroke="rgba(24, 119, 242, 0.31)"></path><path d="M1424.5 206.44a47.21 47.21 0 1 0-53.03-78.12z" stroke="rgba(24, 119, 242, 0.31)"></path><path d="M376.42 382.7L392.39 382.7L392.39 400.2L376.42 400.2z" fill="rgba(24, 119, 242, 0.31)"></path><path d="M891.75 283.06L925.38 283.06L925.38 316.69L891.75 316.69z" stroke="rgba(24, 119, 242, 0.31)"></path><path d="M802.5 296.2 a6.97 6.97 0 1 0 13.94 0 a6.97 6.97 0 1 0 -13.94 0z" fill="rgba(24, 119, 242, 0.31)"></path><path d="M36.49 265.25L39.72 265.25L39.72 270.72L36.49 270.72z" stroke="rgba(24, 119, 242, 0.31)"></path><path d="M1211.31 389.12a40.34 40.34 0 1 0-11.53-79.85z" fill="rgba(24, 119, 242, 0.31)"></path><path d="M1352.73 189.44L1371.17 189.44L1371.17 207.88L1352.73 207.88z" fill="rgba(24, 119, 242, 0.31)"></path><path d="M849.08 68.51L902.86 68.51L902.86 122.29L849.08 122.29z" fill="rgba(24, 119, 242, 0.31)"></path><path d="M963.83 174.13L1008.18 174.13L1008.18 204.25L963.83 204.25z" stroke="rgba(24, 119, 242, 0.31)"></path><path d="M952.66 400.41a1.08 1.08 0 1 0 1.45 1.61z" fill="rgba(24, 119, 242, 0.31)"></path><path d="M942.68 506.34 a10.85 10.85 0 1 0 21.7 0 a10.85 10.85 0 1 0 -21.7 0z" fill="rgba(24, 119, 242, 0.31)"></path><path d="M475.21 69.63L510.52 69.63L510.52 79.11L475.21 79.11z" stroke="rgba(24, 119, 242, 0.31)"></path><path d="M1398 255.24L1445.53 255.24L1445.53 300.94L1398 300.94z" fill="rgba(24, 119, 242, 0.31)"></path><path d="M877.87 473.46L932.58 473.46L932.58 528.17L877.87 528.17z" fill="rgba(24, 119, 242, 0.31)"></path><path d="M586.43 98.57L612.16 98.57L612.16 124.3L586.43 124.3z" fill="rgba(24, 119, 242, 0.31)"></path><path d="M675.48 108.79 a11.54 11.54 0 1 0 23.08 0 a11.54 11.54 0 1 0 -23.08 0z" fill="rgba(24, 119, 242, 0.31)"></path><path d="M438.58 543.73 a55.2 55.2 0 1 0 110.4 0 a55.2 55.2 0 1 0 -110.4 0z" fill="rgba(24, 119, 242, 0.31)"></path><path d="M1152.59 159.62L1185.15 159.62L1185.15 192.18L1152.59 192.18z" fill="rgba(24, 119, 242, 0.31)"></path></g><defs><mask id="SvgjsMask1010"><rect width="1440" height="560" fill="#ffffff"></rect></mask></defs></svg>